<?xml version="1.0" encoding="UTF-8" standalone="no"?>
<!-- Generator: Adobe Illustrator 16.0.4, SVG Export Plug-In . SVG Version: 6.00 Build 0)  -->

<svg
   xmlns:dc="http://purl.org/dc/elements/1.1/"
   xmlns:cc="http://creativecommons.org/ns#"
   xmlns:rdf="http://www.w3.org/1999/02/22-rdf-syntax-ns#"
   xmlns:svg="http://www.w3.org/2000/svg"
   xmlns="http://www.w3.org/2000/svg"
   xmlns:sodipodi="http://sodipodi.sourceforge.net/DTD/sodipodi-0.dtd"
   xmlns:inkscape="http://www.inkscape.org/namespaces/inkscape"
   version="1.1"
   id="Layer_1"
   x="0px"
   y="0px"
   width="585.04303"
   height="174.842"
   viewBox="0 0 585.04303 174.842"
   enable-background="new 0 0 600 600"
   xml:space="preserve"
   inkscape:version="0.91 r13725"
   sodipodi:docname="Serlo wordmark.svg"><metadata
     id="metadata33"><rdf:RDF><cc:Work
         rdf:about=""><dc:format>image/svg+xml</dc:format><dc:type
           rdf:resource="http://purl.org/dc/dcmitype/StillImage" /><dc:title></dc:title></cc:Work></rdf:RDF></metadata><defs
     id="defs31" /><sodipodi:namedview
     pagecolor="#ffffff"
     bordercolor="#666666"
     borderopacity="1"
     objecttolerance="10"
     gridtolerance="10"
     guidetolerance="10"
     inkscape:pageopacity="0"
     inkscape:pageshadow="2"
     inkscape:window-width="1676"
     inkscape:window-height="1027"
     id="namedview29"
     showgrid="false"
     fit-margin-top="10"
     fit-margin-left="10"
     fit-margin-right="10"
     fit-margin-bottom="10"
     inkscape:zoom="0.39333333"
     inkscape:cx="-91.377305"
     inkscape:cy="297.501"
     inkscape:window-x="0"
     inkscape:window-y="19"
     inkscape:window-maximized="0"
     inkscape:current-layer="Layer_1" /><g
     enable-background="new    "
     id="g3"
     transform="translate(-7.479,-422.659)"><path
       d="m 70.721,587.5 c -8.923,0 -16.716,-0.765 -23.367,-2.278 -6.665,-1.494 -12.194,-3.544 -16.631,-6.151 -4.407,-2.637 -7.736,-5.765 -9.951,-9.315 -2.193,-3.536 -3.293,-7.437 -3.293,-11.615 0,-3.15 0.665,-5.895 2.036,-8.294 1.372,-2.329 3.315,-4.315 5.787,-5.887 2.486,-1.572 5.436,-2.772 8.83,-3.5 3.415,-0.822 7.187,-1.201 11.315,-1.201 0,6.145 0.722,11.488 2.1,16.003 1.415,4.558 3.386,8.293 5.901,11.252 2.529,3.035 5.558,5.221 9.058,6.664 3.508,1.414 7.358,2.165 11.566,2.165 4.065,0 7.693,-0.536 10.851,-1.621 3.151,-1.08 5.83,-2.588 8.044,-4.444 2.222,-1.829 3.886,-4.015 5.043,-6.601 1.171,-2.501 1.743,-5.208 1.743,-8.087 0,-2.801 -0.364,-5.358 -1.086,-7.751 -0.757,-2.379 -2.107,-4.665 -4.058,-6.865 -1.986,-2.236 -4.672,-4.515 -8.115,-6.801 -3.429,-2.257 -7.873,-4.843 -13.259,-7.515 -5.608,-2.922 -10.53,-5.93 -14.773,-8.945 -4.25,-3.014 -7.787,-6.328 -10.644,-9.887 -2.829,-3.535 -4.972,-7.43 -6.422,-11.644 -1.422,-4.222 -2.157,-8.974 -2.157,-14.273 0,-6.044 1.307,-11.573 3.9,-16.603 2.585,-5.051 6.308,-9.372 11.144,-13.045 4.851,-3.621 10.702,-6.457 17.595,-8.429 6.858,-1.972 14.581,-2.958 23.132,-2.958 8.001,0 14.98,0.544 20.945,1.715 5.972,1.193 10.916,2.793 14.895,4.823 3.972,2.093 6.937,4.429 8.88,7.193 1.972,2.765 2.95,5.671 2.95,8.829 0,5.415 -2.2,9.701 -6.622,12.858 -4.415,3.115 -11.645,4.658 -21.682,4.658 0,-3.072 -0.321,-6.2 -0.95,-9.487 -0.621,-3.258 -1.75,-6.244 -3.364,-8.973 -1.622,-2.722 -3.793,-4.986 -6.529,-6.687 -2.715,-1.807 -6.194,-2.672 -10.423,-2.672 -2.865,0 -5.715,0.429 -8.573,1.244 -2.829,0.885 -5.386,2.128 -7.608,3.843 -2.257,1.715 -4.079,3.865 -5.486,6.436 -1.407,2.579 -2.108,5.651 -2.108,9.202 0,3.529 0.608,6.564 1.787,9.029 1.2,2.465 2.979,4.793 5.372,6.923 2.386,2.114 5.357,4.172 8.944,6.2 3.593,2.008 7.787,4.229 12.63,6.615 10.865,5.522 18.895,11.602 24.103,18.217 5.187,6.686 7.787,14.315 7.787,22.902 0,7.087 -1.386,13.43 -4.172,19.017 -2.75,5.601 -6.722,10.266 -11.866,14.074 -5.165,3.792 -11.401,6.664 -18.695,8.715 -7.273,1.967 -15.46,2.952 -24.504,2.952 z"
       id="path5"
       inkscape:connector-curvature="0"
       style="fill:#404040" /><path
       d="m 208.295,572.233 c 3.515,0 6.858,-0.45 10.008,-1.399 3.158,-0.922 6.079,-2.2 8.78,-3.729 2.7,-1.528 5.122,-3.285 7.265,-5.18 2.144,-1.957 3.979,-3.942 5.522,-5.957 0.835,0.971 1.514,2.25 2,3.8 0.493,1.521 0.729,3.144 0.729,4.858 0,2.386 -0.836,4.965 -2.5,7.607 -1.701,2.729 -4.272,5.216 -7.744,7.444 -3.472,2.243 -7.901,4.15 -13.273,5.601 -5.358,1.479 -11.73,2.222 -19.095,2.222 -6.594,0 -12.802,-0.822 -18.617,-2.536 -5.814,-1.722 -10.922,-4.278 -15.323,-7.736 -4.386,-3.393 -7.837,-7.723 -10.352,-12.959 -2.536,-5.216 -3.793,-11.337 -3.793,-18.295 0,-4.993 0.7,-10.229 2.107,-15.638 1.408,-5.437 3.479,-10.759 6.279,-15.995 2.744,-5.214 6.187,-10.116 10.294,-14.845 4.107,-4.657 8.851,-8.772 14.266,-12.33 5.401,-3.5 11.444,-6.322 18.146,-8.372 6.701,-2.051 14.016,-3.101 21.931,-3.101 10.33,0 18.316,2.107 24.01,6.236 5.672,4.136 8.515,9.937 8.515,17.424 0,5.429 -1.614,10.658 -4.843,15.623 -3.229,4.993 -7.666,9.38 -13.359,13.145 -5.693,3.779 -12.458,6.736 -20.302,8.973 -7.865,2.25 -16.423,3.365 -25.682,3.365 -1.2,0 -2.486,0 -3.901,0 -1.399,0 -2.771,-0.079 -4.114,-0.229 -0.2,1.343 -0.314,2.63 -0.343,4.015 -0.042,1.301 -0.057,2.551 -0.057,3.673 0,7.779 1.95,13.779 5.829,18.002 3.902,4.199 9.788,6.313 17.617,6.313 z m 7.587,-84.466 c -3.508,0 -6.83,1.249 -10.001,3.671 -3.15,2.487 -5.986,5.687 -8.522,9.595 -2.515,3.937 -4.686,8.357 -6.515,13.229 -1.836,4.908 -3.165,9.695 -4.008,14.51 l 1.894,0 c 5.344,0 10.301,-0.679 14.909,-2.008 4.593,-1.278 8.587,-3.201 11.98,-5.629 3.393,-2.493 6.065,-5.379 8,-8.822 1.937,-3.386 2.879,-7.201 2.879,-11.444 0,-4.144 -0.9,-7.358 -2.765,-9.631 -1.85,-2.314 -4.479,-3.471 -7.851,-3.471 z"
       id="path7"
       inkscape:connector-curvature="0"
       style="fill:#404040" /><path
       d="m 293.078,495.339 c 0,-2.486 -0.886,-4.272 -2.614,-5.351 -1.786,-1.087 -4.687,-1.622 -8.759,-1.622 l -3.879,0 1.893,-10.701 47.678,0 -4.529,27.632 1.049,0 c 2.459,-4.886 4.908,-9.159 7.408,-12.823 2.5,-3.658 5.244,-6.722 8.217,-9.236 2.971,-2.479 6.379,-4.337 10.158,-5.644 3.779,-1.229 8.207,-1.9 13.252,-1.9 7.658,0 13.328,1.321 17.045,4.008 3.729,2.693 5.586,6.607 5.586,11.702 0,6.922 -2.156,12.143 -6.516,15.493 -4.357,3.444 -10.658,5.165 -18.93,5.165 0,-3.063 -0.172,-5.722 -0.502,-8.235 -0.299,-2.43 -0.857,-4.545 -1.656,-6.273 -0.814,-1.757 -1.9,-3.028 -3.271,-4.008 -1.371,-0.899 -3.086,-1.35 -5.123,-1.35 -2.027,0 -4.172,0.729 -6.414,2.329 -2.258,1.528 -4.473,3.644 -6.744,6.344 -2.244,2.672 -4.422,5.864 -6.564,9.559 -2.145,3.692 -4.209,7.729 -6.15,12.051 -1.973,4.357 -3.758,8.951 -5.359,13.751 -1.621,4.786 -2.986,9.631 -4.115,14.503 l -8.215,34.818 -32.51,0 18.309,-80.896 c 0.215,-1.086 0.472,-2.572 0.801,-4.394 0.296,-1.865 0.454,-3.501 0.454,-4.922 z"
       id="path9"
       inkscape:connector-curvature="0"
       style="fill:#404040" /><path
       d="m 433.945,571.49 c 2.258,0 4.314,-0.4 6.215,-1.192 1.885,-0.736 4.072,-1.893 6.516,-3.437 l 5.143,6.802 c -1.656,1.7 -3.586,3.414 -5.771,5.015 -2.188,1.679 -4.615,3.171 -7.316,4.493 -2.713,1.35 -5.699,2.394 -8.986,3.13 -3.314,0.82 -6.914,1.199 -10.859,1.199 -8.271,0 -14.615,-1.821 -19.045,-5.473 -4.398,-3.614 -6.613,-8.707 -6.613,-15.166 0,-5.772 1.17,-13.772 3.457,-23.974 l 18.73,-82.546 c 0.215,-0.815 0.443,-1.736 0.643,-2.65 0.199,-0.894 0.371,-1.729 0.514,-2.601 0.129,-0.801 0.258,-1.5 0.33,-2.107 0.057,-0.607 0.086,-1.008 0.086,-1.265 0,-1.821 -0.201,-3.271 -0.615,-4.4 -0.441,-1.115 -1.086,-1.993 -2.014,-2.615 -0.9,-0.514 -2.102,-0.971 -3.572,-1.142 -1.473,-0.2 -3.229,-0.314 -5.258,-0.314 l -4.529,0 2.016,-10.588 52.062,0 -25.674,110.442 c -0.83,3.657 -1.529,7.101 -2.102,10.273 -0.557,3.171 -0.844,6.136 -0.844,8.979 0,2.951 0.658,5.18 1.959,6.752 1.299,1.593 3.141,2.385 5.527,2.385 z"
       id="path11"
       inkscape:connector-curvature="0"
       style="fill:#404040" /><path
       d="m 466.764,545.267 c 0,-5.079 0.629,-10.259 1.9,-15.639 1.271,-5.372 3.172,-10.629 5.715,-15.772 2.57,-5.237 5.787,-10.144 9.629,-14.724 3.873,-4.594 8.416,-8.687 13.631,-12.108 5.244,-3.508 11.172,-6.279 17.803,-8.286 6.615,-2.009 13.973,-3.044 22.045,-3.044 6.158,0 11.986,0.785 17.445,2.394 5.486,1.6 10.258,4.107 14.316,7.515 4.086,3.437 7.314,7.823 9.686,13.152 2.387,5.344 3.588,11.744 3.588,19.216 0,4.851 -0.586,9.88 -1.801,15.202 -1.186,5.344 -3.029,10.559 -5.516,15.659 -2.5,5.144 -5.643,10.065 -9.473,14.745 -3.828,4.7 -8.344,8.771 -13.516,12.373 -5.201,3.5 -11.102,6.336 -17.688,8.422 -6.602,2.093 -13.959,3.129 -22.104,3.129 -6.729,0 -12.916,-0.836 -18.531,-2.586 -5.6,-1.765 -10.414,-4.364 -14.416,-7.837 -3.984,-3.543 -7.1,-7.972 -9.357,-13.272 -2.241,-5.302 -3.356,-11.447 -3.356,-18.539 z m 49.562,27.803 c 3.857,0 7.344,-1.029 10.473,-3.087 3.129,-2.093 5.916,-4.765 8.416,-8.165 2.5,-3.4 4.658,-7.229 6.473,-11.516 1.814,-4.329 3.314,-8.802 4.471,-13.445 1.172,-4.543 2.045,-9.043 2.615,-13.43 0.615,-4.442 0.914,-8.451 0.914,-11.965 0,-7.917 -1.457,-13.631 -4.371,-17.082 -2.916,-3.528 -6.9,-5.187 -11.945,-5.187 -3.643,0 -7.016,0.958 -10.086,2.9 -3.102,1.93 -5.887,4.63 -8.373,7.866 -2.5,3.265 -4.701,7.008 -6.586,11.222 -1.887,4.244 -3.5,8.588 -4.787,13.159 -1.301,4.53 -2.244,9.009 -2.9,13.517 -0.629,4.443 -0.928,8.571 -0.928,12.344 0,8.13 1.457,14.03 4.414,17.567 2.942,3.494 7.015,5.302 12.2,5.302 z"
       id="path13"
       inkscape:connector-curvature="0"
       style="fill:#404040" /></g></svg>